<svg aria-hidden="true" style="position: absolute; width: 0; height: 0; overflow: hidden;" version="1.1" xmlns="http://www.w3.org/2000/svg" xmlns:xlink="http://www.w3.org/1999/xlink">
<defs>
  <symbol id="icon-paws" viewBox="0 0 32 32">
<path fill="#cad0c8" style="fill: var(--color1, #cad0c8)" d="M0 0h32v32h-32v-32z"></path>
<path fill="#cad0c8" style="fill: var(--color1, #cad0c8)" d="M-3 5.607l16.314-7.607 7.607 16.314-16.314 7.607-7.607-16.314z"></path>
<path fill="#2b4525" style="fill: var(--color2, #2b4525)" d="M3.627 5c0.748-0.49 2.007-0.009 2.816 1.087 0.806 1.089 0.865 2.369 0.12 2.865-0.738 0.493-2.004 0.016-2.819-1.077-0.813-1.086-0.858-2.372-0.116-2.875zM8.487 2.733c0.869-0.248 1.819 0.617 2.142 1.931 0.306 1.33-0.135 2.603-0.994 2.855-0.866 0.255-1.809-0.613-2.118-1.934-0.319-1.324 0.121-2.597 0.97-2.852zM1.448 9.822c0.62-0.694 1.955-0.581 2.997 0.216 1.017 0.833 1.367 2.044 0.754 2.735s-1.938 0.581-2.973-0.236-1.374-2.041-0.778-2.716zM13.683 4.117c0.9-0.022 1.62 1.024 1.58 2.342s-0.807 2.404-1.731 2.429-1.626-1.021-1.611-2.336c0.059-1.31 0.831-2.407 1.761-2.435zM15.965 11.974c0.325 0.626 0.165 1.561-0.296 2.099-0.957 1.125-2.937 0.641-4.289 1.272s-2.246 2.512-3.725 2.465c-0.835-0.016-1.716-0.681-1.97-1.456-0.35-1.070 0.613-2.181 0.988-3.258 0.511-1.405 0.351-3.524 1.718-4.161 1.359-0.634 2.907 0.804 4.284 1.362 1.141 0.477 2.725 0.591 3.29 1.677z"></path>
<path fill="#cad0c8" style="fill: var(--color1, #cad0c8)" d="M17.607 11l16.314 7.607-7.607 16.314-16.314-7.607 7.607-16.314z"></path>
<path fill="#2b4525" style="fill: var(--color2, #2b4525)" d="M22.332 15.686c0.856 0.258 1.297 1.532 0.977 2.856-0.316 1.317-1.259 2.185-2.118 1.933-0.852-0.248-1.3-1.525-0.987-2.852 0.309-1.32 1.266-2.182 2.128-1.937zM27.192 17.952c0.749 0.506 0.697 1.79-0.102 2.882-0.823 1.090-2.081 1.57-2.826 1.074-0.752-0.5-0.693-1.78 0.12-2.865 0.809-1.096 2.067-1.576 2.809-1.090zM17.237 17.117c0.93 0.028 1.702 1.125 1.761 2.435 0.016 1.315-0.687 2.361-1.61 2.336s-1.691-1.111-1.731-2.429c-0.039-1.318 0.68-2.364 1.58-2.342zM29.473 22.822c0.596 0.675 0.256 1.899-0.778 2.716s-2.36 0.927-2.973 0.236c-0.613-0.691-0.263-1.902 0.754-2.735 1.042-0.797 2.378-0.91 2.997-0.216zM24.921 29.62c-0.271 0.652-1.090 1.13-1.798 1.123-1.477-0.010-2.379-1.837-3.732-2.468s-3.368-0.106-4.283-1.269c-0.524-0.65-0.581-1.752-0.151-2.445 0.595-0.956 2.065-0.932 3.131-1.337 1.405-0.512 2.925-1.996 4.291-1.359 1.359 0.634 1.253 2.744 1.711 4.157 0.368 1.181 1.299 2.468 0.83 3.598z"></path>
</symbol>
<symbol id="icon-tiktok" viewBox="0 0 32 32">
<path stroke-linejoin="round" stroke-linecap="round" stroke-miterlimit="4" stroke-width="1.8824" d="M30.824 9.412v13.176c0 2.184-0.868 4.279-2.412 5.823s-3.639 2.412-5.823 2.412h-13.176c-2.184 0-4.279-0.868-5.823-2.412s-2.412-3.639-2.412-5.823v-13.176c0-2.184 0.868-4.279 2.412-5.823s3.639-2.412 5.823-2.412h13.176c2.184 0 4.279 0.868 5.823 2.412s2.412 3.639 2.412 5.823z"></path>
<path stroke-linejoin="round" stroke-linecap="round" stroke-miterlimit="4" stroke-width="1.8824" d="M12.706 16c-0.977 0-1.933 0.29-2.745 0.833s-1.446 1.315-1.82 2.218-0.472 1.896-0.281 2.855c0.191 0.959 0.661 1.839 1.352 2.53s1.572 1.162 2.53 1.352c0.959 0.191 1.952 0.093 2.855-0.281s1.675-1.007 2.217-1.82c0.543-0.813 0.833-1.768 0.833-2.745v-14.824c0.549 1.647 2.635 4.941 6.588 4.941"></path>
</symbol>
<symbol id="icon-twitter" viewBox="0 0 32 32">
<path stroke-linejoin="round" stroke-linecap="round" stroke-miterlimit="4" stroke-width="1.7778" d="M1.222 16c0-6.966 0-10.45 2.164-12.614s5.647-2.164 12.616-2.164c6.966 0 10.449 0 12.612 2.164s2.164 5.647 2.164 12.614c0 6.966 0 10.45-2.164 12.614s-5.647 2.164-12.614 2.164c-6.966 0-10.449 0-12.614-2.164-2.162-2.165-2.164-5.647-2.164-12.614z"></path>
<path stroke-linejoin="round" stroke-linecap="round" stroke-miterlimit="4" stroke-width="1.7778" d="M8.222 23.778l6.524-6.522M14.746 17.255l-6.524-9.033h4.32l4.713 6.524 6.522-6.524M14.746 17.255l4.71 6.522h4.321l-6.522-9.033"></path>
</symbol>
<symbol id="icon-instagram" viewBox="0 0 32 32">
<path stroke-linejoin="round" stroke-linecap="round" stroke-miterlimit="4" stroke-width="1.7778" d="M1.222 16c0-6.966 0-10.45 2.164-12.614s5.647-2.164 12.614-2.164c6.966 0 10.45 0 12.614 2.164s2.164 5.647 2.164 12.614c0 6.966 0 10.45-2.164 12.614s-5.647 2.164-12.614 2.164c-6.966 0-10.45 0-12.614-2.164s-2.164-5.647-2.164-12.614z"></path>
<path stroke-linejoin="round" stroke-linecap="round" stroke-miterlimit="4" stroke-width="1.7778" d="M24.568 7.444h-0.016M23 16c0 1.857-0.738 3.637-2.050 4.95s-3.093 2.050-4.95 2.050-3.637-0.738-4.95-2.050c-1.313-1.313-2.050-3.093-2.050-4.95s0.738-3.637 2.050-4.95c1.313-1.313 3.093-2.050 4.95-2.050s3.637 0.738 4.95 2.050c1.313 1.313 2.050 3.093 2.050 4.95z"></path>
</symbol>
<symbol id="icon-plus" viewBox="0 0 32 32">
<path stroke-linejoin="round" stroke-linecap="round" stroke-miterlimit="4" stroke-width="2.2857" d="M16.060 2l-0.036 28M2 16h28"></path>
</symbol>
<symbol id="icon-close" viewBox="0 0 32 32">
<path stroke-linejoin="round" stroke-linecap="round" stroke-miterlimit="4" stroke-width="2.6667" d="M6.666 6.667l18.667 18.667M6.666 25.333l18.667-18.667"></path>
</symbol>
<symbol id="icon-burger" viewBox="0 0 32 32">
<path stroke-linejoin="round" stroke-linecap="round" stroke-miterlimit="4" stroke-width="2.6667" d="M6.666 6.667h18.667M6.666 25.333h18.667"></path>
<path stroke-linejoin="round" stroke-linecap="round" stroke-miterlimit="4" stroke-width="2.6667" d="M6.666 16h18.667"></path>
</symbol>
</defs>
</svg>
